<svg width="99" height="40" viewBox="0 0 99 40" fill="none" xmlns="http://www.w3.org/2000/svg">
<rect x="1.25" y="1.25" width="96.5" height="37.5" rx="18.75" stroke="#007AFB" stroke-width="2.5"/>
<path d="M45.2416 17.6158C46.8605 17.569 48.1937 18.7858 48.3365 20.3301H41.9085C42.1466 18.739 43.5751 17.5222 45.2416 17.6158ZM48.1461 23.138C47.5271 24.0271 46.4795 24.5419 45.3844 24.4483C43.575 24.4483 42.2418 23.4656 41.9085 21.7808H49.9554C50.003 21.5468 50.003 21.3128 50.003 21.0321C50.003 18.3646 48.0984 16.0247 45.1939 16.0247C42.4799 15.9311 40.242 18.037 40.1468 20.6577C40.1468 20.7513 40.1468 20.8917 40.1468 20.9853C40.1468 23.8399 42.1942 25.9459 45.2892 25.9459C47.0033 25.9927 48.5746 25.1971 49.5269 23.7931L48.1461 23.138Z" fill="#006BFF"/>
<path d="M39.4326 12H37.7661V25.8054H39.4326V12Z" fill="#006BFF"/>
<path d="M59.3355 19.9556V25.7586H57.669V20.0492C57.669 18.5049 56.7643 17.6157 55.2883 17.6157C53.8122 17.6157 52.479 18.5049 52.479 20.7512V25.7586H50.8125V16.3054H52.479V17.6625C53.1456 16.5862 54.336 15.9778 55.6216 16.0714C57.8595 16.0714 59.3355 17.5689 59.3355 19.9556Z" fill="#006BFF"/>
<path d="M68.5727 21.032C68.5727 19.1601 67.0015 17.7094 65.1445 17.7094C63.2399 17.7094 61.7638 19.2537 61.7638 21.0788C61.7638 22.9039 63.2875 24.4015 65.1921 24.4015C67.0491 24.4483 68.5727 22.9975 68.6204 21.1724C68.5727 21.1256 68.5727 21.0788 68.5727 21.032ZM70.2393 12V25.8054H68.5727V24.1675C67.7633 25.3842 66.3825 26.0862 64.954 26.0394C62.1448 25.9458 59.9545 23.6527 60.0497 20.8916C60.1449 18.2709 62.2876 16.165 64.954 16.0714C66.4301 16.0246 67.8109 16.7266 68.5727 17.9433V12H70.2393Z" fill="#006BFF"/>
<path d="M73.2866 12H71.6201V25.8054H73.2866V12Z" fill="#006BFF"/>
<path d="M34.7663 21.032C34.7663 19.1601 33.195 17.7093 31.3381 17.7093C29.4335 17.7093 27.9574 19.2537 27.9574 21.0788C27.9574 22.9039 29.4811 24.4015 31.3381 24.4015C33.195 24.4483 34.7187 22.9975 34.7663 21.1724C34.7663 21.1256 34.7663 21.0788 34.7663 21.032ZM36.4328 16.3054V25.7586H34.7663V24.1675C33.9569 25.3842 32.576 26.0862 31.1476 26.0394C28.3383 25.9458 26.1481 23.6527 26.2433 20.8916C26.3385 18.2709 28.4812 16.165 31.1476 16.0714C32.6237 16.0246 34.0045 16.7266 34.7663 17.9433V16.3054H36.4328Z" fill="#006BFF"/>
<path d="M23.815 23.9803C21.1009 24.9631 18.1012 23.6527 17.0537 20.9852C16.0538 18.3178 17.387 15.3695 20.101 14.3399C22.2437 13.5444 24.672 14.1995 26.1005 16.0247L27.5289 14.9951C25.1482 12 20.7676 11.4384 17.7203 13.7316C14.6729 16.0715 14.1016 20.3769 16.4347 23.3719C18.8154 26.367 23.196 26.9286 26.2433 24.6355H26.2909L25.3386 23.138C24.8625 23.5123 24.3387 23.7931 23.815 23.9803Z" fill="#006BFF"/>
<path d="M81.3335 16.3054V21.6872C81.3335 23.4187 80.3336 24.5419 78.7623 24.5419C77.191 24.5419 76.0482 23.4655 76.0482 21.6872V16.3054H74.3341V21.5C74.3341 24.2143 76.0482 25.9926 78.7147 25.9926C81.0002 25.9926 81.3811 24.5419 81.3811 24.5419V26.5074C81.3811 28.4261 80.524 29.5025 78.7623 29.5025C77.4767 29.5025 76.3339 28.5665 76.1911 27.303L74.6674 27.8177C75.0959 29.6897 76.8101 31 78.7623 31C81.4763 31 83 29.2217 83 26.5074V16.3054H81.3335Z" fill="#006BFF"/>
</svg>
