<svg width="40" height="40" viewBox="0 0 40 40" fill="none" xmlns="http://www.w3.org/2000/svg">
<g clip-path="url(#clip0_1_181)">
<path fill-rule="evenodd" clip-rule="evenodd" d="M19.8751 40C30.8518 40 39.7502 31.0457 39.7502 20C39.7502 8.9543 30.8518 0 19.8751 0C8.89839 0 0 8.9543 0 20C0 31.0457 8.89839 40 19.8751 40ZM19.8751 37.6C29.5346 37.6 37.3652 29.7202 37.3652 20C37.3652 10.2798 29.5346 2.4 19.8751 2.4C10.2156 2.4 2.38501 10.2798 2.38501 20C2.38501 29.7202 10.2156 37.6 19.8751 37.6ZM11.1301 16.0944V27.7265H14.8746V16.0944H11.1301ZM13.2485 10.4C11.9675 10.4 11.1301 11.2687 11.1301 12.4092C11.1301 13.5261 11.9428 14.4198 13.1999 14.4198H13.2238C14.5295 14.4198 15.3427 13.5261 15.3427 12.4092C15.3184 11.2687 14.5295 10.4 13.2485 10.4ZM24.3088 16.0944C22.3207 16.0944 21.4306 17.2235 20.9336 18.0155V16.3679H17.1886C17.238 17.4594 17.1886 28 17.1886 28H20.9336V21.5037C20.9336 21.156 20.9579 20.8092 21.0569 20.5603C21.3275 19.8658 21.9437 19.1467 22.9782 19.1467C24.3338 19.1467 24.8756 20.2134 24.8756 21.7765V27.9997H28.62L28.6202 21.3302C28.6202 17.7573 26.7729 16.0944 24.3088 16.0944Z" fill="#007AFB"/>
</g>
<defs>
<clipPath id="clip0_1_181">
<rect width="40" height="40" fill="white"/>
</clipPath>
</defs>
</svg>
