<svg width="17" height="16" viewBox="0 0 17 16" fill="none" xmlns="http://www.w3.org/2000/svg">
<g clip-path="url(#clip0_1_138)">
<path d="M8.50001 1.44184C10.7042 1.44184 10.9629 1.45137 11.8341 1.48948C12.6397 1.52441 13.0753 1.65462 13.3668 1.76578C13.7533 1.91187 14.0284 2.08337 14.3166 2.36284C14.6048 2.64232 14.7849 2.90909 14.9323 3.28384C15.0437 3.56649 15.1812 3.98888 15.2173 4.77015C15.2566 5.61493 15.2664 5.86582 15.2664 8.00318C15.2664 10.1405 15.2566 10.3914 15.2173 11.2362C15.1812 12.0175 15.047 12.4399 14.9323 12.7225C14.7817 13.0973 14.6048 13.364 14.3166 13.6435C14.0284 13.923 13.7533 14.0977 13.3668 14.2406C13.0753 14.3486 12.6397 14.4819 11.8341 14.5169C10.9629 14.555 10.7042 14.5645 8.50001 14.5645C6.29586 14.5645 6.03712 14.555 5.16594 14.5169C4.36027 14.4819 3.92468 14.3517 3.63319 14.2406C3.24673 14.0945 2.97162 13.923 2.68341 13.6435C2.3952 13.364 2.21507 13.0973 2.06769 12.7225C1.95633 12.4399 1.81878 12.0175 1.78275 11.2362C1.74345 10.3914 1.73363 10.1405 1.73363 8.00318C1.73363 5.86582 1.74345 5.61493 1.78275 4.77015C1.81878 3.98888 1.95306 3.56649 2.06769 3.28384C2.21834 2.90909 2.3952 2.64232 2.68341 2.36284C2.97162 2.08337 3.24673 1.90869 3.63319 1.76578C3.92468 1.6578 4.36027 1.52441 5.16594 1.48948C6.03712 1.44819 6.29913 1.44184 8.50001 1.44184ZM8.50001 0C6.25983 0 5.97817 0.00952759 5.09716 0.047638C4.21943 0.0857483 3.62009 0.22231 3.09607 0.419214C2.5524 0.622469 2.09389 0.898769 1.63537 1.34339C1.17686 1.78801 0.895197 2.23581 0.682315 2.75983C0.479258 3.26796 0.338428 3.84915 0.299127 4.70345C0.259825 5.55459 0.25 5.82771 0.25 8C0.25 10.1723 0.259825 10.4454 0.299127 11.2997C0.338428 12.1509 0.479258 12.732 0.682315 13.2434C0.891922 13.7705 1.17686 14.2152 1.63537 14.6598C2.09389 15.1044 2.55568 15.3775 3.09607 15.584C3.62009 15.7809 4.21944 15.9174 5.10044 15.9555C5.98145 15.9936 6.25983 16.0032 8.50328 16.0032C10.7467 16.0032 11.0251 15.9936 11.9061 15.9555C12.7839 15.9174 13.3832 15.7809 13.9105 15.584C14.4542 15.3807 14.9127 15.1044 15.3712 14.6598C15.8297 14.2152 16.1114 13.7674 16.3242 13.2434C16.5273 12.7352 16.6681 12.154 16.7074 11.2997C16.7467 10.4454 16.7566 10.1755 16.7566 8C16.7566 5.82453 16.7467 5.55458 16.7074 4.70028C16.6681 3.84915 16.5273 3.26796 16.3242 2.75665C16.1146 2.22946 15.8297 1.78484 15.3712 1.34021C14.9127 0.895594 14.4509 0.622469 13.9105 0.416038C13.3865 0.219135 12.7871 0.0825724 11.9061 0.0444621C11.0218 0.00952759 10.7402 0 8.50001 0Z" fill="#FBFBFB"/>
<path d="M8.50001 1.44184C10.7042 1.44184 10.9629 1.45137 11.8341 1.48948C12.6397 1.52441 13.0753 1.65462 13.3668 1.76578C13.7533 1.91187 14.0284 2.08337 14.3166 2.36284C14.6048 2.64232 14.7849 2.90909 14.9323 3.28384C15.0437 3.56649 15.1812 3.98888 15.2173 4.77015C15.2566 5.61493 15.2664 5.86582 15.2664 8.00318C15.2664 10.1405 15.2566 10.3914 15.2173 11.2362C15.1812 12.0175 15.047 12.4399 14.9323 12.7225C14.7817 13.0973 14.6048 13.364 14.3166 13.6435C14.0284 13.923 13.7533 14.0977 13.3668 14.2406C13.0753 14.3486 12.6397 14.4819 11.8341 14.5169C10.9629 14.555 10.7042 14.5645 8.50001 14.5645C6.29586 14.5645 6.03712 14.555 5.16594 14.5169C4.36027 14.4819 3.92468 14.3517 3.63319 14.2406C3.24673 14.0945 2.97162 13.923 2.68341 13.6435C2.3952 13.364 2.21507 13.0973 2.06769 12.7225C1.95633 12.4399 1.81878 12.0175 1.78275 11.2362C1.74345 10.3914 1.73363 10.1405 1.73363 8.00318C1.73363 5.86582 1.74345 5.61493 1.78275 4.77015C1.81878 3.98888 1.95306 3.56649 2.06769 3.28384C2.21834 2.90909 2.3952 2.64232 2.68341 2.36284C2.97162 2.08337 3.24673 1.90869 3.63319 1.76578C3.92468 1.6578 4.36027 1.52441 5.16594 1.48948C6.03712 1.44819 6.29913 1.44184 8.50001 1.44184Z" fill="#FBFBFB"/>
<path d="M8.50001 3.89362C6.16159 3.89362 4.26202 5.73244 4.26202 8.00318C4.26202 10.2739 6.15831 12.1127 8.50001 12.1127C10.8417 12.1127 12.738 10.2739 12.738 8.00318C12.738 5.73244 10.8417 3.89362 8.50001 3.89362ZM8.50001 10.6677C6.98036 10.6677 5.74892 9.47361 5.74892 8.00001C5.74892 6.52641 6.98036 5.33228 8.50001 5.33228C10.0197 5.33228 11.2511 6.52641 11.2511 8.00001C11.2511 9.47361 10.0197 10.6677 8.50001 10.6677Z" fill="#00C8FA"/>
<path d="M12.905 4.68757C13.4513 4.68757 13.8941 4.25816 13.8941 3.72846C13.8941 3.19876 13.4513 2.76935 12.905 2.76935C12.3588 2.76935 11.916 3.19876 11.916 3.72846C11.916 4.25816 12.3588 4.68757 12.905 4.68757Z" fill="#00C8FA"/>
</g>
<defs>
<clipPath id="clip0_1_138">
<rect width="16.5" height="16" fill="white" transform="translate(0.25)"/>
</clipPath>
</defs>
</svg>
