<svg width="17" height="16" viewBox="0 0 17 16" fill="none" xmlns="http://www.w3.org/2000/svg">
<g clip-path="url(#clip0_1_143)">
<path d="M15.532 0H1.46802C1.14498 0 0.835173 0.124438 0.60675 0.34594C0.378327 0.567441 0.25 0.867861 0.25 1.18111V14.8189C0.25 15.1321 0.378327 15.4326 0.60675 15.6541C0.835173 15.8756 1.14498 16 1.46802 16H15.532C15.855 16 16.1648 15.8756 16.3933 15.6541C16.6217 15.4326 16.75 15.1321 16.75 14.8189V1.18111C16.75 0.867861 16.6217 0.567441 16.3933 0.34594C16.1648 0.124438 15.855 0 15.532 0ZM5.16792 13.63H2.68719V5.98889H5.16792V13.63ZM3.92583 4.93C3.64444 4.92846 3.36982 4.84613 3.13663 4.69339C2.90344 4.54065 2.72214 4.32435 2.6156 4.07179C2.50907 3.81923 2.48207 3.54173 2.53802 3.2743C2.59397 3.00688 2.73036 2.76152 2.92998 2.56919C3.1296 2.37686 3.3835 2.24618 3.65963 2.19364C3.93577 2.1411 4.22177 2.16906 4.48153 2.27399C4.74129 2.37892 4.96318 2.55611 5.11919 2.78321C5.27521 3.01031 5.35835 3.27713 5.35813 3.55C5.36078 3.73269 5.32548 3.91403 5.25432 4.0832C5.18317 4.25238 5.07761 4.40593 4.94395 4.53471C4.8103 4.66349 4.65127 4.76486 4.47635 4.83277C4.30144 4.90068 4.11421 4.93375 3.92583 4.93ZM14.3117 13.6367H11.8321V9.46222C11.8321 8.23111 11.2924 7.85111 10.5957 7.85111C9.86011 7.85111 9.13823 8.38889 9.13823 9.49333V13.6367H6.6575V5.99445H9.04313V7.05333H9.07521C9.31469 6.58333 10.1534 5.78 11.4333 5.78C12.8175 5.78 14.3128 6.57667 14.3128 8.91L14.3117 13.6367Z" fill="#FBFBFB"/>
</g>
<defs>
<clipPath id="clip0_1_143">
<rect width="16.5" height="16" fill="white" transform="translate(0.25)"/>
</clipPath>
</defs>
</svg>
