<svg width="15" height="14" viewBox="0 0 15 14" fill="none" xmlns="http://www.w3.org/2000/svg">
<path d="M2.21591 0.5H12.7841C13.9657 0.5 14.9313 1.47966 14.9965 2.71403L15 2.84722V11.1528C15 12.4044 14.0751 13.4272 12.9098 13.4963L12.7841 13.5H2.21591C1.0343 13.5 0.068696 12.5203 0.00350784 11.286L0 11.1528V2.84722C0 1.59559 0.924856 0.572767 2.09017 0.503716L2.21591 0.5H12.7841H2.21591ZM13.9773 4.76472L7.73592 8.2028C7.61269 8.27068 7.46987 8.28199 7.34011 8.23674L7.26408 8.2028L1.02273 4.76472V11.1528C1.02273 11.8159 1.50485 12.3598 2.11805 12.4125L2.21591 12.4167H12.7841C13.4101 12.4167 13.9235 11.906 13.9733 11.2564L13.9773 11.1528V4.76472ZM12.7841 1.58333H2.21591C1.58988 1.58333 1.07646 2.09402 1.02668 2.74356L1.02273 2.84722V3.54344L7.5 7.1117L13.9773 3.54344V2.84722C13.9773 2.1841 13.4952 1.64025 12.882 1.58752L12.7841 1.58333Z" fill="#FBFBFB"/>
</svg>
