<svg aria-hidden="true" style="position: absolute; width: 0; height: 0; overflow: hidden;" version="1.1" xmlns="http://www.w3.org/2000/svg" xmlns:xlink="http://www.w3.org/1999/xlink">
<defs>
<symbol id="icon-date" viewBox="0 0 32 32">
<path fill="#00c8fa" style="fill: var(--color1, #00c8fa)" d="M22.435 26.5c0.243 0.233 0.522 0.333 0.835 0.333s0.591-0.1 0.835-0.333l3.2-3.067c0.452-0.433 0.452-1.167 0-1.6s-1.217-0.433-1.67 0l-2.365 2.267-0.87-0.833c-0.452-0.433-1.217-0.433-1.67 0s-0.452 1.167 0 1.6l1.704 1.633z"></path>
<path fill="#00c8fa" style="fill: var(--color1, #00c8fa)" d="M28.383 3.233h-1.496v-0.333c0-1.533-1.287-2.767-2.887-2.767s-2.887 1.233-2.887 2.767v0.333h-2.261v-0.333c0-1.533-1.287-2.767-2.887-2.767s-2.887 1.233-2.887 2.767v0.333h-2.261v-0.333c0-1.533-1.287-2.767-2.887-2.767s-2.887 1.233-2.887 2.767v0.333h-1.496c-1.948 0-3.513 1.5-3.513 3.367v21.833c0 1.867 1.565 3.367 3.513 3.367h24.765c1.948 0 3.513-1.5 3.513-3.367v-21.8c0.070-1.867-1.496-3.4-3.443-3.4zM22.957 2.933c0-0.567 0.487-1 1.043-1 0.591 0 1.043 0.467 1.043 1v2.4c0 0.567-0.487 1-1.043 1-0.591 0-1.043-0.467-1.043-1v-2.4zM14.957 2.933c0-0.567 0.487-1 1.043-1 0.591 0 1.043 0.467 1.043 1v2.4c0 0.567-0.487 1-1.043 1-0.591 0-1.043-0.467-1.043-1v-2.4zM6.922 2.933c0-0.567 0.487-1 1.043-1 0.591 0 1.043 0.467 1.043 1v2.4c0 0.567-0.487 1-1.043 1-0.591 0-1.043-0.467-1.043-1v-2.4zM30.087 28.467c0 0.9-0.765 1.633-1.704 1.633h-24.765c-0.939 0-1.704-0.733-1.704-1.633v-17.667h28.139v17.667h0.035z"></path>
<path fill="#00c8fa" style="fill: var(--color1, #00c8fa)" d="M6.365 19.366h3.583c0.487 0 0.904-0.4 0.904-0.867v-3.467c0-0.467-0.417-0.867-0.904-0.867h-3.583c-0.487 0-0.904 0.4-0.904 0.867v3.467c0 0.467 0.417 0.867 0.904 0.867z"></path>
<path fill="#00c8fa" style="fill: var(--color1, #00c8fa)" d="M14.226 19.366h3.583c0.487 0 0.904-0.4 0.904-0.867v-3.467c0-0.467-0.417-0.867-0.904-0.867h-3.583c-0.487 0-0.904 0.4-0.904 0.867v3.467c-0.035 0.467 0.383 0.867 0.904 0.867z"></path>
<path fill="#00c8fa" style="fill: var(--color1, #00c8fa)" d="M22.052 19.366h3.583c0.487 0 0.904-0.4 0.904-0.867v-3.467c0-0.467-0.417-0.867-0.904-0.867h-3.583c-0.487 0-0.904 0.4-0.904 0.867v3.467c0 0.467 0.417 0.867 0.904 0.867z"></path>
<path fill="#00c8fa" style="fill: var(--color1, #00c8fa)" d="M6.365 26.766h3.583c0.487 0 0.904-0.4 0.904-0.867v-3.467c0-0.467-0.417-0.867-0.904-0.867h-3.583c-0.487 0-0.904 0.4-0.904 0.867v3.467c0 0.467 0.417 0.867 0.904 0.867z"></path>
<path fill="#00c8fa" style="fill: var(--color1, #00c8fa)" d="M14.226 26.766h3.583c0.487 0 0.904-0.4 0.904-0.867v-3.467c0-0.467-0.417-0.867-0.904-0.867h-3.583c-0.487 0-0.904 0.4-0.904 0.867v3.467c-0.035 0.467 0.383 0.867 0.904 0.867z"></path>
</symbol>
<symbol id="icon-location" viewBox="0 0 23 32">
<path fill="#00c8fa" style="fill: var(--color1, #00c8fa)" d="M11.429 0.16c-2.895 0-5.672 1.127-7.719 3.134s-3.197 4.728-3.197 7.565c0 7.624 9.904 20.982 10.917 20.982s10.917-13.358 10.917-20.982c0-1.405-0.282-2.796-0.831-4.094s-1.353-2.477-2.366-3.471c-1.014-0.993-2.217-1.781-3.542-2.319s-2.744-0.814-4.178-0.814zM11.429 16.337c-1.106 0-2.186-0.321-3.106-0.923s-1.636-1.458-2.059-2.459c-0.423-1.001-0.534-2.103-0.318-3.165s0.748-2.039 1.53-2.805c0.782-0.766 1.778-1.288 2.862-1.499s2.208-0.103 3.23 0.312c1.021 0.415 1.895 1.117 2.509 2.018s0.942 1.96 0.942 3.044c0 0.719-0.145 1.432-0.426 2.097s-0.693 1.269-1.212 1.777c-0.519 0.509-1.135 0.912-1.814 1.188s-1.405 0.417-2.139 0.417z"></path>
</symbol>
<symbol id="icon-mail" viewBox="0 0 34 32">
<path fill="#fbfbfb" style="fill: var(--color1, #fbfbfb)" d="M5.065 1.143h24.156c2.701 0 4.908 2.239 5.057 5.061l0.008 0.304v18.984c0 2.861-2.114 5.199-4.778 5.357l-0.287 0.008h-24.156c-2.701 0-4.908-2.239-5.057-5.061l-0.008-0.304v-18.984c0-2.861 2.114-5.199 4.778-5.357l0.287-0.008zM31.948 10.891l-14.266 7.858c-0.282 0.155-0.608 0.181-0.905 0.078l-0.174-0.078-14.266-7.858v14.601c0 1.516 1.102 2.759 2.504 2.879l0.224 0.010h24.156c1.431 0 2.604-1.167 2.718-2.652l0.009-0.237v-14.601zM29.221 3.619h-24.156c-1.431 0-2.604 1.167-2.718 2.652l-0.009 0.237v1.591l14.805 8.156 14.805-8.156v-1.591c0-1.516-1.102-2.759-2.504-2.879l-0.224-0.010z"></path>
</symbol>
<symbol id="icon-tel" viewBox="0 0 21 32">
<path fill="#fbfbfb" style="fill: var(--color1, #fbfbfb)" d="M3.478 1.694l1.952-0.63c1.838-0.593 3.802 0.365 4.589 2.24l1.215 2.894c0.671 1.598 0.317 3.476-0.879 4.671l-2.123 2.12c-0.026 0.026-0.048 0.057-0.064 0.092-0.222 0.486 0.114 1.784 1.172 3.746 1.192 2.211 2.114 3.086 2.54 2.951l2.787-0.912c1.565-0.512 3.26 0.099 4.217 1.519l1.726 2.561c1.12 1.663 0.919 3.956-0.471 5.366l-1.484 1.505c-1.048 1.063-2.517 1.509-3.93 1.195-4.137-0.921-7.843-4.488-11.15-10.62-3.31-6.139-4.341-11.363-3.011-15.661 0.452-1.46 1.539-2.593 2.914-3.037zM3.987 3.502c-0.825 0.266-1.477 0.946-1.748 1.822-1.146 3.704-0.218 8.408 2.864 14.123 3.079 5.71 6.416 8.922 9.981 9.715 0.848 0.189 1.729-0.079 2.358-0.717l1.484-1.505c0.749-0.759 0.857-1.994 0.254-2.89l-1.726-2.561c-0.515-0.765-1.428-1.094-2.271-0.818l-2.793 0.914c-1.546 0.493-2.998-0.886-4.577-3.814-1.337-2.479-1.801-4.27-1.229-5.521 0.11-0.242 0.261-0.46 0.445-0.643l2.123-2.12c0.644-0.643 0.835-1.655 0.474-2.515l-1.215-2.894c-0.424-1.010-1.481-1.526-2.471-1.206l-1.952 0.63z"></path>
</symbol>
<symbol id="icon-Facebook" viewBox="0 0 34 32">
<path fill="#fbfbfb" style="fill: var(--color1, #fbfbfb)" d="M24.169 17.772l0.855-5.46h-5.349v-3.542c0-1.494 0.746-2.951 3.142-2.951h2.434v-4.649c0 0-2.208-0.369-4.317-0.369-4.407 0-7.286 2.616-7.286 7.349v4.162h-4.897v5.46h4.897v13.2c0.983 0.151 1.989 0.229 3.014 0.229s2.030-0.077 3.014-0.229v-13.2h4.494z"></path>
</symbol>
<symbol id="icon-Twitter" viewBox="0 0 34 32">
<path fill="#fbfbfb" style="fill: var(--color1, #fbfbfb)" d="M29.454 9.574c0.013 0.282 0.013 0.55 0.013 0.832 0.013 8.538-6.456 18.394-18.285 18.394-3.489 0-6.914-1.011-9.856-2.906 0.509 0.064 1.019 0.090 1.528 0.090 2.891 0 5.705-0.973 7.984-2.778-2.75-0.051-5.17-1.856-6.010-4.493 0.968 0.192 1.961 0.154 2.903-0.115-2.992-0.589-5.144-3.238-5.157-6.323 0-0.026 0-0.051 0-0.077 0.891 0.499 1.897 0.781 2.916 0.806-2.814-1.894-3.693-5.67-1.986-8.627 3.273 4.045 8.086 6.49 13.256 6.758-0.522-2.24 0.191-4.595 1.859-6.182 2.585-2.445 6.66-2.317 9.104 0.282 1.439-0.282 2.827-0.819 4.088-1.574-0.484 1.498-1.49 2.765-2.827 3.571 1.273-0.154 2.521-0.499 3.693-1.011-0.866 1.306-1.961 2.432-3.222 3.354z"></path>
</symbol>
<symbol id="icon-Instagram" viewBox="0 0 34 32">
<path fill="#fbfbfb" style="fill: var(--color1, #fbfbfb)" d="M17 2.884c4.408 0 4.926 0.019 6.668 0.095 1.611 0.070 2.482 0.33 3.065 0.553 0.773 0.292 1.323 0.635 1.9 1.194s0.937 1.093 1.231 1.842c0.223 0.565 0.498 1.41 0.57 2.973 0.079 1.69 0.098 2.191 0.098 6.466s-0.020 4.776-0.098 6.466c-0.072 1.563-0.341 2.407-0.57 2.973-0.301 0.75-0.655 1.283-1.231 1.842s-1.127 0.908-1.9 1.194c-0.583 0.216-1.454 0.483-3.065 0.553-1.742 0.076-2.26 0.095-6.668 0.095s-4.926-0.019-6.668-0.095c-1.611-0.070-2.483-0.33-3.066-0.553-0.773-0.292-1.323-0.635-1.9-1.194s-0.937-1.092-1.231-1.842c-0.223-0.565-0.498-1.41-0.57-2.973-0.079-1.69-0.098-2.191-0.098-6.466s0.020-4.777 0.098-6.466c0.072-1.563 0.341-2.407 0.57-2.973 0.301-0.75 0.655-1.283 1.231-1.842s1.127-0.908 1.9-1.194c0.583-0.216 1.454-0.483 3.066-0.553 1.742-0.083 2.266-0.095 6.668-0.095zM17 0c-4.48 0-5.044 0.019-6.806 0.095-1.755 0.076-2.954 0.349-4.002 0.743-1.087 0.406-2.004 0.959-2.921 1.848s-1.48 1.785-1.906 2.833c-0.406 1.016-0.688 2.179-0.766 3.887-0.079 1.702-0.098 2.249-0.098 6.593s0.020 4.891 0.098 6.599c0.079 1.702 0.36 2.865 0.766 3.887 0.419 1.054 0.989 1.944 1.906 2.833s1.841 1.435 2.921 1.848c1.048 0.394 2.247 0.667 4.009 0.743s2.319 0.095 6.806 0.095c4.487 0 5.044-0.019 6.806-0.095 1.756-0.076 2.954-0.349 4.009-0.743 1.087-0.407 2.004-0.959 2.921-1.848s1.48-1.785 1.906-2.833c0.406-1.016 0.688-2.179 0.766-3.887s0.098-2.248 0.098-6.599c0-4.351-0.020-4.891-0.098-6.599-0.079-1.702-0.36-2.865-0.766-3.887-0.419-1.054-0.989-1.944-1.906-2.833s-1.841-1.435-2.921-1.848c-1.048-0.394-2.247-0.667-4.009-0.743-1.769-0.070-2.332-0.089-6.812-0.089z"></path>
<path fill="#fbfbfb" style="fill: var(--color1, #fbfbfb)" d="M17 2.884c4.408 0 4.926 0.019 6.668 0.095 1.611 0.070 2.482 0.33 3.065 0.553 0.773 0.292 1.323 0.635 1.9 1.194s0.937 1.093 1.231 1.842c0.223 0.565 0.498 1.41 0.57 2.973 0.079 1.69 0.098 2.191 0.098 6.466s-0.020 4.776-0.098 6.466c-0.072 1.563-0.341 2.407-0.57 2.973-0.301 0.75-0.655 1.283-1.231 1.842s-1.127 0.908-1.9 1.194c-0.583 0.216-1.454 0.483-3.065 0.553-1.742 0.076-2.26 0.095-6.668 0.095s-4.926-0.019-6.668-0.095c-1.611-0.070-2.483-0.33-3.066-0.553-0.773-0.292-1.323-0.635-1.9-1.194s-0.937-1.092-1.231-1.842c-0.223-0.565-0.498-1.41-0.57-2.973-0.079-1.69-0.098-2.191-0.098-6.466s0.020-4.777 0.098-6.466c0.072-1.563 0.341-2.407 0.57-2.973 0.301-0.75 0.655-1.283 1.231-1.842s1.127-0.908 1.9-1.194c0.583-0.216 1.454-0.483 3.066-0.553 1.742-0.083 2.266-0.095 6.668-0.095z"></path>
<path fill="#00c8fa" style="fill: var(--color2, #00c8fa)" d="M17 7.787c-4.677 0-8.476 3.678-8.476 8.219s3.793 8.219 8.476 8.219 8.476-3.678 8.476-8.219c0-4.541-3.793-8.219-8.476-8.219zM17 21.335c-3.039 0-5.502-2.388-5.502-5.335s2.463-5.335 5.502-5.335c3.039 0 5.502 2.388 5.502 5.335s-2.463 5.335-5.502 5.335z"></path>
<path fill="#00c8fa" style="fill: var(--color2, #00c8fa)" d="M25.81 9.375c1.093 0 1.978-0.859 1.978-1.918s-0.886-1.918-1.978-1.918c-1.092 0-1.978 0.859-1.978 1.918s0.886 1.918 1.978 1.918z"></path>
</symbol>
<symbol id="icon-LinkedIn" viewBox="0 0 34 32">
<path fill="#fbfbfb" style="fill: var(--color1, #fbfbfb)" d="M31.064 0h-28.128c-0.646 0-1.266 0.249-1.723 0.692s-0.714 1.044-0.714 1.67v27.276c0 0.626 0.257 1.227 0.714 1.67s1.076 0.692 1.723 0.692h28.128c0.646 0 1.266-0.249 1.723-0.692s0.713-1.044 0.713-1.67v-27.276c0-0.627-0.257-1.227-0.713-1.67s-1.077-0.692-1.723-0.692zM10.336 27.26h-4.961v-15.282h4.961v15.282zM7.852 9.86c-0.563-0.003-1.112-0.168-1.578-0.473s-0.829-0.738-1.042-1.243c-0.213-0.505-0.267-1.060-0.155-1.595s0.385-1.026 0.784-1.41c0.399-0.385 0.907-0.646 1.459-0.751s1.124-0.049 1.644 0.161c0.52 0.21 0.963 0.564 1.275 1.018s0.478 0.988 0.478 1.534c0.005 0.365-0.065 0.728-0.208 1.066s-0.353 0.645-0.621 0.903c-0.267 0.258-0.585 0.46-0.935 0.596s-0.724 0.202-1.101 0.194zM28.623 27.273h-4.959v-8.349c0-2.462-1.079-3.222-2.473-3.222-1.471 0-2.915 1.076-2.915 3.284v8.287h-4.961v-15.284h4.771v2.118h0.064c0.479-0.94 2.156-2.547 4.716-2.547 2.768 0 5.759 1.593 5.759 6.26l-0.002 9.453z"></path>
</symbol>
<symbol id="icon-Arrow" viewBox="0 0 100 32">
<path fill="#fbfbfb" style="fill: var(--color1, #fbfbfb)" d="M97.414 17.414c0.781-0.781 0.781-2.047 0-2.828l-12.728-12.728c-0.781-0.781-2.048-0.781-2.828 0s-0.781 2.047 0 2.828l11.314 11.314-11.314 11.314c-0.781 0.781-0.781 2.047 0 2.828s2.047 0.781 2.828 0l12.728-12.728zM0 18h96v-4h-96v4z"></path>
</symbol>
<symbol id="icon-Calendly" viewBox="0 0 79 32">
<path fill="none" stroke="#007afb" style="stroke: var(--color1, #007afb)" stroke-linejoin="miter" stroke-linecap="butt" stroke-miterlimit="4" stroke-width="2" d="M16 1h47.2c8.284 0 15 6.716 15 15s-6.716 15-15 15h-47.2c-8.284 0-15-6.716-15-15s6.716-15 15-15z"></path>
<path  d="M36.193 14.093c1.295-0.037 2.362 0.936 2.476 2.171h-5.142c0.19-1.273 1.333-2.246 2.666-2.171zM38.517 18.51c-0.495 0.711-1.333 1.123-2.209 1.048-1.448 0-2.514-0.786-2.781-2.134h6.438c0.038-0.187 0.038-0.374 0.038-0.599 0-2.134-1.524-4.006-3.847-4.006-2.171-0.075-3.962 1.61-4.038 3.706 0 0.075 0 0.187 0 0.262 0 2.284 1.638 3.968 4.114 3.968 1.371 0.037 2.628-0.599 3.39-1.722l-1.105-0.524z"></path>
<path  d="M31.546 9.6h-1.333v11.044h1.333v-11.044z"></path>
<path  d="M47.468 15.964v4.642h-1.333v-4.568c0-1.235-0.724-1.947-1.905-1.947s-2.247 0.711-2.247 2.508v4.006h-1.333v-7.563h1.333v1.086c0.533-0.861 1.486-1.348 2.514-1.273 1.79 0 2.971 1.198 2.971 3.107z"></path>
<path  d="M54.858 16.826c0-1.498-1.257-2.658-2.743-2.658-1.524 0-2.705 1.235-2.705 2.696s1.219 2.658 2.743 2.658c1.486 0.037 2.704-1.123 2.743-2.583-0.038-0.037-0.038-0.075-0.038-0.112zM56.191 9.6v11.044h-1.333v-1.31c-0.648 0.973-1.752 1.535-2.895 1.498-2.247-0.075-4-1.909-3.923-4.118 0.076-2.097 1.79-3.781 3.923-3.856 1.181-0.037 2.286 0.524 2.895 1.498v-4.755h1.333z"></path>
<path  d="M58.629 9.6h-1.333v11.044h1.333v-11.044z"></path>
<path  d="M27.813 16.826c0-1.498-1.257-2.658-2.743-2.658-1.524 0-2.705 1.236-2.705 2.696s1.219 2.658 2.705 2.658c1.486 0.037 2.704-1.123 2.743-2.583 0-0.037 0-0.075 0-0.112zM29.146 13.044v7.563h-1.333v-1.273c-0.648 0.973-1.752 1.535-2.895 1.498-2.247-0.075-4-1.909-3.923-4.118 0.076-2.097 1.79-3.781 3.923-3.856 1.181-0.037 2.286 0.524 2.895 1.498v-1.31h1.333z"></path>
<path  d="M19.052 19.184c-2.171 0.786-4.571-0.262-5.409-2.396-0.8-2.134 0.267-4.493 2.438-5.316 1.714-0.636 3.657-0.112 4.8 1.348l1.143-0.824c-1.905-2.396-5.409-2.845-7.847-1.011-2.438 1.872-2.895 5.316-1.028 7.712 1.905 2.396 5.409 2.845 7.847 1.011h0.038l-0.762-1.198c-0.381 0.299-0.8 0.524-1.219 0.674z"></path>
<path  d="M65.067 13.044v4.305c0 1.385-0.8 2.284-2.057 2.284s-2.171-0.861-2.171-2.284v-4.305h-1.371v4.156c0 2.171 1.371 3.594 3.504 3.594 1.828 0 2.133-1.161 2.133-1.161v1.572c0 1.535-0.686 2.396-2.095 2.396-1.028 0-1.943-0.749-2.057-1.76l-1.219 0.412c0.343 1.498 1.714 2.546 3.276 2.546 2.171 0 3.39-1.423 3.39-3.594v-8.162h-1.333z"></path>
</symbol>
<symbol id="icon-linkedin" viewBox="0 0 32 32">
<path   d="M15.9 32c-8.781 0-15.9-7.163-15.9-16s7.119-16 15.9-16c8.781 0 15.9 7.163 15.9 16s-7.119 16-15.9 16zM15.9 30.080c7.728 0 13.992-6.304 13.992-14.080s-6.264-14.080-13.992-14.080c-7.728 0-13.992 6.304-13.992 14.080s6.264 14.080 13.992 14.080zM8.904 12.876v9.306h2.996v-9.306h-2.996zM10.599 8.32c-1.025 0-1.695 0.695-1.695 1.607 0 0.894 0.65 1.608 1.656 1.608h0.019c1.045 0 1.695-0.715 1.695-1.608-0.019-0.912-0.651-1.607-1.675-1.607zM19.447 12.876c-1.59 0-2.303 0.903-2.7 1.537v-1.318h-2.996c0.040 0.873 0 9.306 0 9.306h2.996v-5.197c0-0.278 0.019-0.556 0.099-0.755 0.216-0.556 0.709-1.131 1.537-1.131 1.084 0 1.518 0.853 1.518 2.104v4.979h2.996l0-5.336c0-2.858-1.478-4.189-3.449-4.189z"></path>
</symbol>
</defs>
</svg>
