<svg width="12" height="18" viewBox="0 0 12 18" fill="none" xmlns="http://www.w3.org/2000/svg">
<path d="M1.9561 0.952739L3.05424 0.598328C4.08825 0.264613 5.19301 0.803929 5.63582 1.85859L6.31941 3.48672C6.69684 4.38567 6.49794 5.44214 5.82471 6.11433L4.63062 7.30657C4.61587 7.3213 4.60375 7.33881 4.59488 7.35823C4.46998 7.63157 4.65924 8.36186 5.25432 9.46543C5.92503 10.7093 6.44344 11.2015 6.68287 11.1251L8.25039 10.612C9.13044 10.3239 10.0842 10.6674 10.6226 11.4665L11.5935 12.9071C12.2237 13.8424 12.1104 15.1326 11.3283 15.9257L10.4933 16.7723C9.90358 17.3704 9.07773 17.6214 8.28246 17.4444C5.95561 16.9264 3.87088 14.9201 2.01077 11.4705C0.148839 8.01751 -0.430859 5.07884 0.316977 2.66095C0.570973 1.83974 1.18254 1.2024 1.9561 0.952739ZM2.2425 1.97006C1.77836 2.11985 1.41142 2.50226 1.25902 2.99498C0.614652 5.07835 1.13661 7.72429 2.87018 10.9392C4.6021 14.1511 6.47935 15.9577 8.48445 16.4041C8.96161 16.5103 9.45712 16.3597 9.81098 16.0008L10.6459 15.1542C11.0671 14.7272 11.1281 14.0324 10.7887 13.5288L9.81788 12.0882C9.52794 11.6579 9.0144 11.4729 8.54052 11.6281L6.96968 12.1423C6.10026 12.4197 5.28312 11.6439 4.39491 9.9967C3.64298 8.60223 3.38195 7.59499 3.70348 6.8913C3.76561 6.75531 3.85048 6.63266 3.95387 6.52946L5.14793 5.33724C5.51044 4.9753 5.61754 4.40643 5.4143 3.92238L4.73071 2.29424C4.49228 1.72635 3.89741 1.43595 3.34063 1.61564L2.2425 1.97006Z" fill="#FBFBFB"/>
</svg>
