<svg width="17" height="16" viewBox="0 0 17 16" fill="none" xmlns="http://www.w3.org/2000/svg">
<g clip-path="url(#clip0_1_135)">
<path d="M14.7268 4.78678C14.7332 4.92758 14.7332 5.06198 14.7332 5.20278C14.7395 9.47159 11.5052 14.3996 5.59048 14.3996C3.84598 14.3996 2.13332 13.894 0.662598 12.9468C0.917269 12.9788 1.17194 12.9916 1.42661 12.9916C2.87187 12.9916 4.27893 12.5052 5.41858 11.6028C4.04335 11.5772 2.83367 10.6748 2.41346 9.35639C2.89734 9.45239 3.39394 9.43319 3.86509 9.29879C2.36889 9.00439 1.29291 7.67959 1.28654 6.13718C1.28654 6.12438 1.28654 6.11158 1.28654 6.09878C1.73222 6.34838 2.23519 6.48918 2.74453 6.50198C1.33748 5.55478 0.898168 3.66677 1.75132 2.18837C3.38758 4.21078 5.79422 5.43318 8.37913 5.56758C8.11809 4.44758 8.47463 3.26997 9.30868 2.47637C10.6011 1.25397 12.6385 1.31797 13.8609 2.61717C14.5804 2.47637 15.2743 2.20757 15.9047 1.82997C15.6627 2.57877 15.1597 3.21237 14.4912 3.61557C15.1279 3.53877 15.7519 3.36597 16.3376 3.10997C15.9047 3.76278 15.3571 4.32598 14.7268 4.78678Z" fill="#FBFBFB"/>
</g>
<defs>
<clipPath id="clip0_1_135">
<rect width="16.5" height="16" fill="white" transform="translate(0.25)"/>
</clipPath>
</defs>
</svg>
