<svg aria-hidden="true" style="position: absolute; width: 0; height: 0; overflow: hidden;" version="1.1" xmlns="http://www.w3.org/2000/svg" xmlns:xlink="http://www.w3.org/1999/xlink">
<defs>
<symbol id="icon-date" viewBox="0 0 32 32">
<path fill="#00c8fa" style="fill: var(--color1, #00c8fa)" d="M22.435 26.5c0.243 0.233 0.522 0.333 0.835 0.333s0.591-0.1 0.835-0.333l3.2-3.067c0.452-0.433 0.452-1.167 0-1.6s-1.217-0.433-1.67 0l-2.365 2.267-0.87-0.833c-0.452-0.433-1.217-0.433-1.67 0s-0.452 1.167 0 1.6l1.704 1.633z"></path>
<path fill="#00c8fa" style="fill: var(--color1, #00c8fa)" d="M28.383 3.233h-1.496v-0.333c0-1.533-1.287-2.767-2.887-2.767s-2.887 1.233-2.887 2.767v0.333h-2.261v-0.333c0-1.533-1.287-2.767-2.887-2.767s-2.887 1.233-2.887 2.767v0.333h-2.261v-0.333c0-1.533-1.287-2.767-2.887-2.767s-2.887 1.233-2.887 2.767v0.333h-1.496c-1.948 0-3.513 1.5-3.513 3.367v21.833c0 1.867 1.565 3.367 3.513 3.367h24.765c1.948 0 3.513-1.5 3.513-3.367v-21.8c0.070-1.867-1.496-3.4-3.443-3.4zM22.957 2.933c0-0.567 0.487-1 1.043-1 0.591 0 1.043 0.467 1.043 1v2.4c0 0.567-0.487 1-1.043 1-0.591 0-1.043-0.467-1.043-1v-2.4zM14.957 2.933c0-0.567 0.487-1 1.043-1 0.591 0 1.043 0.467 1.043 1v2.4c0 0.567-0.487 1-1.043 1-0.591 0-1.043-0.467-1.043-1v-2.4zM6.922 2.933c0-0.567 0.487-1 1.043-1 0.591 0 1.043 0.467 1.043 1v2.4c0 0.567-0.487 1-1.043 1-0.591 0-1.043-0.467-1.043-1v-2.4zM30.087 28.467c0 0.9-0.765 1.633-1.704 1.633h-24.765c-0.939 0-1.704-0.733-1.704-1.633v-17.667h28.139v17.667h0.035z"></path>
<path fill="#00c8fa" style="fill: var(--color1, #00c8fa)" d="M6.365 19.366h3.583c0.487 0 0.904-0.4 0.904-0.867v-3.467c0-0.467-0.417-0.867-0.904-0.867h-3.583c-0.487 0-0.904 0.4-0.904 0.867v3.467c0 0.467 0.417 0.867 0.904 0.867z"></path>
<path fill="#00c8fa" style="fill: var(--color1, #00c8fa)" d="M14.226 19.366h3.583c0.487 0 0.904-0.4 0.904-0.867v-3.467c0-0.467-0.417-0.867-0.904-0.867h-3.583c-0.487 0-0.904 0.4-0.904 0.867v3.467c-0.035 0.467 0.383 0.867 0.904 0.867z"></path>
<path fill="#00c8fa" style="fill: var(--color1, #00c8fa)" d="M22.052 19.366h3.583c0.487 0 0.904-0.4 0.904-0.867v-3.467c0-0.467-0.417-0.867-0.904-0.867h-3.583c-0.487 0-0.904 0.4-0.904 0.867v3.467c0 0.467 0.417 0.867 0.904 0.867z"></path>
<path fill="#00c8fa" style="fill: var(--color1, #00c8fa)" d="M6.365 26.766h3.583c0.487 0 0.904-0.4 0.904-0.867v-3.467c0-0.467-0.417-0.867-0.904-0.867h-3.583c-0.487 0-0.904 0.4-0.904 0.867v3.467c0 0.467 0.417 0.867 0.904 0.867z"></path>
<path fill="#00c8fa" style="fill: var(--color1, #00c8fa)" d="M14.226 26.766h3.583c0.487 0 0.904-0.4 0.904-0.867v-3.467c0-0.467-0.417-0.867-0.904-0.867h-3.583c-0.487 0-0.904 0.4-0.904 0.867v3.467c-0.035 0.467 0.383 0.867 0.904 0.867z"></path>
</symbol>
<symbol id="icon-location" viewBox="0 0 23 32">
<path fill="#00c8fa" style="fill: var(--color1, #00c8fa)" d="M11.429 0.16c-2.895 0-5.672 1.127-7.719 3.134s-3.197 4.728-3.197 7.565c0 7.624 9.904 20.982 10.917 20.982s10.917-13.358 10.917-20.982c0-1.405-0.282-2.796-0.831-4.094s-1.353-2.477-2.366-3.471c-1.014-0.993-2.217-1.781-3.542-2.319s-2.744-0.814-4.178-0.814zM11.429 16.337c-1.106 0-2.186-0.321-3.106-0.923s-1.636-1.458-2.059-2.459c-0.423-1.001-0.534-2.103-0.318-3.165s0.748-2.039 1.53-2.805c0.782-0.766 1.778-1.288 2.862-1.499s2.208-0.103 3.23 0.312c1.021 0.415 1.895 1.117 2.509 2.018s0.942 1.96 0.942 3.044c0 0.719-0.145 1.432-0.426 2.097s-0.693 1.269-1.212 1.777c-0.519 0.509-1.135 0.912-1.814 1.188s-1.405 0.417-2.139 0.417z"></path>
</symbol>
</defs>
</svg>
